# xmcd
#
# Track frame offsets:
#	150
#	57808
#	85818
#	124888
#	146676
#	187742
#	202576
#	226865
#
# Disc length: 3314 seconds
#
# Revision: 1
# Processed by: cddbd v1.5.2PL0 Copyright (c) Steve Scherf et al.
# Submitted via: audiograbber 1.83.01
#
DISCID=5d0cf008
DTITLE=Grateful Dead - 80-08-26 Cleveland Public Hall, Cleveland OH
DYEAR=1900
DGENRE=
TTITLE0=Sugaree
TTITLE1=El Paso
TTITLE2=Loser
TTITLE3=BIODTL
TTITLE4=Althea
TTITLE5=Lazy Lightning
TTITLE6=Supplication
TTITLE7=Deal
EXTD=
EXTT0=
EXTT1=
EXTT2=
EXTT3=
EXTT4=
EXTT5=
EXTT6=
EXTT7=
PLAYORDER=
